<svg xmlns="http://www.w3.org/2000/svg" xmlns:xlink="http://www.w3.org/1999/xlink" width="1361" zoomAndPan="magnify" viewBox="0 0 1020.75 821.999993" height="1096" preserveAspectRatio="xMidYMid meet" version="1.0"><defs><clipPath id="c3bae92160"><path d="M 102 0.101562 L 931 0.101562 L 931 821.898438 L 102 821.898438 Z M 102 0.101562 " clip-rule="nonzero"/></clipPath><clipPath id="f86bcbe571"><path d="M 182.265625 83.03125 L 329 83.03125 L 329 229.984375 L 182.265625 229.984375 Z M 182.265625 83.03125 " clip-rule="nonzero"/></clipPath><clipPath id="217da1f7f8"><path d="M 181.515625 156.238281 C 181.515625 197.082031 214.625 230.195312 255.472656 230.195312 C 296.316406 230.195312 329.429688 197.082031 329.429688 156.238281 C 329.429688 115.390625 296.316406 82.28125 255.472656 82.28125 C 214.625 82.28125 181.515625 115.390625 181.515625 156.238281 Z M 181.515625 156.238281 " clip-rule="nonzero"/></clipPath><clipPath id="e809d85d32"><path d="M 255.472656 83.105469 C 295.863281 83.105469 328.605469 115.847656 328.605469 156.238281 C 328.605469 196.628906 295.863281 229.371094 255.472656 229.371094 C 215.082031 229.371094 182.339844 196.628906 182.339844 156.238281 C 182.339844 115.847656 215.082031 83.105469 255.472656 83.105469 Z M 255.472656 83.105469 " clip-rule="nonzero"/></clipPath><clipPath id="633e863fc6"><path d="M 181.515625 82.28125 L 329.21875 82.28125 L 329.21875 229.984375 L 181.515625 229.984375 Z M 181.515625 82.28125 " clip-rule="nonzero"/></clipPath><clipPath id="bf88fb2e56"><path d="M 181.515625 156.238281 C 181.515625 197.082031 214.625 230.195312 255.472656 230.195312 C 296.316406 230.195312 329.429688 197.082031 329.429688 156.238281 C 329.429688 115.390625 296.316406 82.28125 255.472656 82.28125 C 214.625 82.28125 181.515625 115.390625 181.515625 156.238281 Z M 181.515625 156.238281 " clip-rule="nonzero"/></clipPath><clipPath id="046a4a2124"><path d="M 181.515625 156.234375 C 181.515625 197.074219 214.625 230.183594 255.46875 230.183594 C 296.308594 230.183594 329.417969 197.074219 329.417969 156.234375 C 329.417969 115.390625 296.308594 82.28125 255.46875 82.28125 C 214.625 82.28125 181.515625 115.390625 181.515625 156.234375 Z M 181.515625 156.234375 " clip-rule="nonzero"/></clipPath><clipPath id="2124fab59f"><path d="M 75 0.101562 L 828.972656 0.101562 L 828.972656 821.898438 L 75 821.898438 Z M 75 0.101562 " clip-rule="nonzero"/></clipPath><clipPath id="0c188ecad6"><path d="M 182.265625 537.402344 L 329 537.402344 L 329 684 L 182.265625 684 Z M 182.265625 537.402344 " clip-rule="nonzero"/></clipPath><clipPath id="0dede8bc45"><path d="M 181.515625 610.609375 C 181.515625 651.457031 214.625 684.566406 255.472656 684.566406 C 296.316406 684.566406 329.429688 651.457031 329.429688 610.609375 C 329.429688 569.765625 296.316406 536.652344 255.472656 536.652344 C 214.625 536.652344 181.515625 569.765625 181.515625 610.609375 Z M 181.515625 610.609375 " clip-rule="nonzero"/></clipPath><clipPath id="887aba1991"><path d="M 255.472656 537.476562 C 295.863281 537.476562 328.605469 570.222656 328.605469 610.609375 C 328.605469 651 295.863281 683.742188 255.472656 683.742188 C 215.082031 683.742188 182.339844 651 182.339844 610.609375 C 182.339844 570.222656 215.082031 537.476562 255.472656 537.476562 Z M 255.472656 537.476562 " clip-rule="nonzero"/></clipPath><clipPath id="4a0f27568a"><path d="M 181.515625 536.652344 L 329.21875 536.652344 L 329.21875 684.359375 L 181.515625 684.359375 Z M 181.515625 536.652344 " clip-rule="nonzero"/></clipPath><clipPath id="09f7c6cfd9"><path d="M 181.515625 610.609375 C 181.515625 651.457031 214.625 684.566406 255.472656 684.566406 C 296.316406 684.566406 329.429688 651.457031 329.429688 610.609375 C 329.429688 569.765625 296.316406 536.652344 255.472656 536.652344 C 214.625 536.652344 181.515625 569.765625 181.515625 610.609375 Z M 181.515625 610.609375 " clip-rule="nonzero"/></clipPath><clipPath id="65cd4dba69"><path d="M 181.515625 610.605469 C 181.515625 651.449219 214.625 684.558594 255.46875 684.558594 C 296.308594 684.558594 329.417969 651.449219 329.417969 610.605469 C 329.417969 569.761719 296.308594 536.652344 255.46875 536.652344 C 214.625 536.652344 181.515625 569.761719 181.515625 610.605469 Z M 181.515625 610.605469 " clip-rule="nonzero"/></clipPath><clipPath id="d6e7f6f938"><path d="M 501.140625 537.402344 L 648 537.402344 L 648 684 L 501.140625 684 Z M 501.140625 537.402344 " clip-rule="nonzero"/></clipPath><clipPath id="aeec6f5de5"><path d="M 500.390625 610.609375 C 500.390625 651.457031 533.503906 684.566406 574.347656 684.566406 C 615.191406 684.566406 648.304688 651.457031 648.304688 610.609375 C 648.304688 569.765625 615.191406 536.652344 574.347656 536.652344 C 533.503906 536.652344 500.390625 569.765625 500.390625 610.609375 Z M 500.390625 610.609375 " clip-rule="nonzero"/></clipPath><clipPath id="91eba67f0c"><path d="M 574.347656 537.476562 C 614.738281 537.476562 647.480469 570.222656 647.480469 610.609375 C 647.480469 651 614.738281 683.742188 574.347656 683.742188 C 533.957031 683.742188 501.214844 651 501.214844 610.609375 C 501.214844 570.222656 533.957031 537.476562 574.347656 537.476562 Z M 574.347656 537.476562 " clip-rule="nonzero"/></clipPath><clipPath id="696bdbd3ee"><path d="M 500.390625 536.652344 L 648.097656 536.652344 L 648.097656 684.359375 L 500.390625 684.359375 Z M 500.390625 536.652344 " clip-rule="nonzero"/></clipPath><clipPath id="c86ec836c5"><path d="M 500.390625 610.609375 C 500.390625 651.457031 533.503906 684.566406 574.347656 684.566406 C 615.191406 684.566406 648.304688 651.457031 648.304688 610.609375 C 648.304688 569.765625 615.191406 536.652344 574.347656 536.652344 C 533.503906 536.652344 500.390625 569.765625 500.390625 610.609375 Z M 500.390625 610.609375 " clip-rule="nonzero"/></clipPath><clipPath id="6a776a1696"><path d="M 500.390625 610.605469 C 500.390625 651.449219 533.5 684.558594 574.34375 684.558594 C 615.183594 684.558594 648.296875 651.449219 648.296875 610.605469 C 648.296875 569.761719 615.183594 536.652344 574.34375 536.652344 C 533.5 536.652344 500.390625 569.761719 500.390625 610.605469 Z M 500.390625 610.605469 " clip-rule="nonzero"/></clipPath><clipPath id="7e08367985"><rect x="0" width="829" y="0" height="822"/></clipPath></defs><g clip-path="url(#c3bae92160)"><g transform="matrix(1, 0, 0, 1, 102, 0.000000000000048392)"><g clip-path="url(#7e08367985)"><g clip-path="url(#f86bcbe571)"><g clip-path="url(#217da1f7f8)"><g clip-path="url(#e809d85d32)"><path fill="#252825" d="M 228.945312 225.078125 C 219.742188 221.5625 211.351562 216.285156 204.179688 209.382812 C 197.007812 202.480469 191.390625 194.359375 187.46875 185.292969 C 183.679688 176.5 181.714844 167.230469 181.515625 157.621094 C 181.3125 148.011719 182.933594 138.675781 186.386719 129.746094 C 189.902344 120.542969 195.179688 112.152344 202.082031 104.980469 C 208.984375 97.808594 217.105469 92.191406 226.171875 88.265625 C 234.964844 84.480469 244.234375 82.515625 253.84375 82.3125 C 263.453125 82.109375 272.789062 83.734375 281.71875 87.183594 C 290.921875 90.703125 299.3125 95.980469 306.484375 102.882812 C 313.65625 109.785156 319.273438 117.902344 323.195312 126.96875 C 326.984375 135.765625 328.949219 145.035156 329.152344 154.644531 C 329.355469 164.25 327.730469 173.589844 324.28125 182.519531 C 320.761719 191.722656 315.484375 200.113281 308.582031 207.285156 C 301.679688 214.457031 293.5625 220.074219 284.496094 223.996094 C 275.699219 227.785156 266.429688 229.746094 256.820312 229.949219 C 256.28125 229.949219 255.804688 229.949219 255.265625 229.949219 C 246.199219 229.949219 237.335938 228.328125 228.945312 225.078125 Z M 253.980469 90.5 C 236.453125 90.839844 220.082031 98.011719 207.96875 110.664062 C 195.859375 123.316406 189.363281 139.960938 189.699219 157.484375 C 190.039062 175.011719 197.210938 191.382812 209.863281 203.496094 C 222.179688 215.335938 238.28125 221.765625 255.332031 221.765625 C 255.804688 221.765625 256.210938 221.765625 256.6875 221.765625 C 274.210938 221.425781 290.585938 214.253906 302.695312 201.601562 C 314.808594 188.949219 321.300781 172.304688 320.964844 154.777344 C 320.625 137.253906 313.453125 120.878906 300.800781 108.769531 C 288.488281 96.929688 272.382812 90.5 255.332031 90.5 C 238.28125 90.5 254.453125 90.5 253.980469 90.5 Z M 253.980469 90.5 " fill-opacity="1" fill-rule="nonzero"/></g></g></g><g clip-path="url(#633e863fc6)"><g clip-path="url(#bf88fb2e56)"><g clip-path="url(#046a4a2124)"><path stroke-linecap="butt" transform="matrix(0.749773, 0, 0, 0.749773, 181.514807, 82.280522)" fill="none" stroke-linejoin="miter" d="M 0.00109084 98.634966 C 0.00109084 153.104564 44.160279 197.263752 98.635087 197.263752 C 153.104684 197.263752 197.263872 153.104564 197.263872 98.634966 C 197.263872 44.160158 153.104684 0.000970459 98.635087 0.000970459 C 44.160279 0.000970459 0.00109084 44.160158 0.00109084 98.634966 Z M 0.00109084 98.634966 " stroke="#ffffff" stroke-width="120" stroke-opacity="1" stroke-miterlimit="4"/></g></g></g><path stroke-linecap="butt" transform="matrix(0, 0.749773, -0.749773, 0, 281.333286, 209.557714)" fill="none" stroke-linejoin="miter" d="M 0.00117309 34.501687 L 448.923352 34.501687 " stroke="#ffffff" stroke-width="69" stroke-opacity="1" stroke-miterlimit="4"/><g clip-path="url(#2124fab59f)"><path stroke-linecap="butt" transform="matrix(0.749773, 0, 0, 0.749773, 341.936429, 130.370301)" fill="none" stroke-linejoin="miter" d="M 306.219006 554.52808 L 306.219006 134.500054 C 306.219006 79.269814 261.450263 34.501071 206.220024 34.501071 L 34.501442 34.501071 " stroke="#ffffff" stroke-width="69" stroke-opacity="1" stroke-miterlimit="4"/></g><path stroke-linecap="round" transform="matrix(0.749773, 0, 0, 0.749773, 341.936429, 130.370301)" fill="none" stroke-linejoin="round" d="M 172.501497 138.001112 L 34.501442 34.501071 L 172.501497 -68.998969 " stroke="#ffffff" stroke-width="69" stroke-opacity="1" stroke-miterlimit="4"/><path stroke-linecap="round" transform="matrix(0.749773, 0.000000000000000121, -0.000000000000000121, 0.749773, 309.54003, 357.5569)" fill="none" stroke-linejoin="miter" d="M 34.498723 34.502273 L 318.683598 34.502273 " stroke="#ffffff" stroke-width="69" stroke-opacity="1" stroke-miterlimit="4"/><g clip-path="url(#0c188ecad6)"><g clip-path="url(#0dede8bc45)"><g clip-path="url(#887aba1991)"><path fill="#252825" d="M 228.945312 679.453125 C 219.742188 675.933594 211.351562 670.65625 204.179688 663.753906 C 197.007812 656.855469 191.390625 648.734375 187.46875 639.667969 C 183.679688 630.871094 181.714844 621.601562 181.515625 611.992188 C 181.3125 602.386719 182.933594 593.046875 186.386719 584.117188 C 189.902344 574.914062 195.179688 566.523438 202.082031 559.351562 C 208.984375 552.179688 217.105469 546.566406 226.171875 542.640625 C 234.964844 538.851562 244.234375 536.890625 253.84375 536.6875 C 263.453125 536.484375 272.789062 538.109375 281.71875 541.558594 C 290.921875 545.078125 299.3125 550.355469 306.484375 557.253906 C 313.65625 564.15625 319.273438 572.277344 323.195312 581.34375 C 326.984375 590.140625 328.949219 599.410156 329.152344 609.015625 C 329.355469 618.625 327.730469 627.960938 324.28125 636.894531 C 320.761719 646.09375 315.484375 654.484375 308.582031 661.65625 C 301.679688 668.828125 293.5625 674.445312 284.496094 678.371094 C 275.699219 682.160156 266.429688 684.121094 256.820312 684.324219 C 256.28125 684.324219 255.804688 684.324219 255.265625 684.324219 C 246.199219 684.324219 237.335938 682.699219 228.945312 679.453125 Z M 253.980469 544.875 C 236.453125 545.210938 220.082031 552.382812 207.96875 565.035156 C 195.859375 577.691406 189.363281 594.335938 189.699219 611.859375 C 190.039062 629.382812 197.210938 645.757812 209.863281 657.867188 C 222.179688 669.710938 238.28125 676.136719 255.332031 676.136719 C 255.804688 676.136719 256.210938 676.136719 256.6875 676.136719 C 274.210938 675.800781 290.585938 668.625 302.695312 655.972656 C 314.808594 643.320312 321.300781 626.675781 320.964844 609.152344 C 320.625 591.628906 313.453125 575.253906 300.800781 563.140625 C 288.488281 551.300781 272.382812 544.875 255.332031 544.875 C 238.28125 544.875 254.453125 544.875 253.980469 544.875 Z M 253.980469 544.875 " fill-opacity="1" fill-rule="nonzero"/></g></g></g><g clip-path="url(#4a0f27568a)"><g clip-path="url(#09f7c6cfd9)"><g clip-path="url(#65cd4dba69)"><path stroke-linecap="butt" transform="matrix(0.749773, 0, 0, 0.749773, 181.514807, 536.653739)" fill="none" stroke-linejoin="miter" d="M 0.00109084 98.632134 C 0.00109084 153.106942 44.160279 197.26613 98.635087 197.26613 C 153.104684 197.26613 197.263872 153.106942 197.263872 98.632134 C 197.263872 44.157327 153.104684 -0.00186127 98.635087 -0.00186127 C 44.160279 -0.00186127 0.00109084 44.157327 0.00109084 98.632134 Z M 0.00109084 98.632134 " stroke="#ffffff" stroke-width="120" stroke-opacity="1" stroke-miterlimit="4"/></g></g></g><g clip-path="url(#d6e7f6f938)"><g clip-path="url(#aeec6f5de5)"><g clip-path="url(#91eba67f0c)"><path fill="#252825" d="M 547.820312 679.453125 C 538.617188 675.933594 530.226562 670.65625 523.054688 663.753906 C 515.882812 656.855469 510.269531 648.734375 506.34375 639.667969 C 502.554688 630.871094 500.59375 621.601562 500.390625 611.992188 C 500.1875 602.386719 501.8125 593.046875 505.261719 584.117188 C 508.78125 574.914062 514.058594 566.523438 520.957031 559.351562 C 527.859375 552.179688 535.980469 546.566406 545.046875 542.640625 C 553.84375 538.851562 563.113281 536.890625 572.71875 536.6875 C 582.328125 536.484375 591.664062 538.109375 600.597656 541.558594 C 609.796875 545.078125 618.1875 550.355469 625.359375 557.253906 C 632.53125 564.15625 638.148438 572.277344 642.074219 581.34375 C 645.863281 590.140625 647.824219 599.410156 648.027344 609.015625 C 648.230469 618.625 646.605469 627.960938 643.15625 636.894531 C 639.636719 646.09375 634.359375 654.484375 627.457031 661.65625 C 620.558594 668.828125 612.4375 674.445312 603.371094 678.371094 C 594.574219 682.160156 585.304688 684.121094 575.695312 684.324219 C 575.15625 684.324219 574.683594 684.324219 574.140625 684.324219 C 565.074219 684.324219 556.210938 682.699219 547.820312 679.453125 Z M 572.855469 544.875 C 555.332031 545.210938 538.957031 552.382812 526.84375 565.035156 C 514.734375 577.691406 508.238281 594.335938 508.578125 611.859375 C 508.914062 629.382812 516.085938 645.757812 528.738281 657.867188 C 541.054688 669.710938 557.15625 676.136719 574.207031 676.136719 C 574.683594 676.136719 575.089844 676.136719 575.5625 676.136719 C 593.085938 675.800781 609.460938 668.625 621.570312 655.972656 C 633.683594 643.320312 640.179688 626.675781 639.839844 609.152344 C 639.503906 591.628906 632.328125 575.253906 619.675781 563.140625 C 607.363281 551.300781 591.257812 544.875 574.207031 544.875 C 557.15625 544.875 573.328125 544.875 572.855469 544.875 Z M 572.855469 544.875 " fill-opacity="1" fill-rule="nonzero"/></g></g></g><g clip-path="url(#696bdbd3ee)"><g clip-path="url(#c86ec836c5)"><g clip-path="url(#6a776a1696)"><path stroke-linecap="butt" transform="matrix(0.749773, 0, 0, 0.749773, 500.390607, 536.653739)" fill="none" stroke-linejoin="miter" d="M 0.0000245137 98.632134 C 0.0000245137 153.106942 44.159213 197.26613 98.63402 197.26613 C 153.103618 197.26613 197.268016 153.106942 197.268016 98.632134 C 197.268016 44.157327 153.103618 -0.00186127 98.63402 -0.00186127 C 44.159213 -0.00186127 0.0000245137 44.157327 0.0000245137 98.632134 Z M 0.0000245137 98.632134 " stroke="#ffffff" stroke-width="120" stroke-opacity="1" stroke-miterlimit="4"/></g></g></g></g></g></g></svg>