<svg xmlns="http://www.w3.org/2000/svg" xmlns:xlink="http://www.w3.org/1999/xlink" width="2000" zoomAndPan="magnify" viewBox="0 0 1500 1499.999933" height="2000" preserveAspectRatio="xMidYMid meet" version="1.0"><defs><clipPath id="0dce7be2db"><path d="M 254.03125 258.820312 L 588.53125 258.820312 L 588.53125 593 L 254.03125 593 Z M 254.03125 258.820312 " clip-rule="nonzero"/></clipPath><clipPath id="a1ed361601"><path d="M 253.28125 425.90625 C 253.28125 470.417969 270.960938 513.109375 302.4375 544.582031 C 333.914062 576.058594 376.601562 593.742188 421.113281 593.742188 C 465.628906 593.742188 508.316406 576.058594 539.792969 544.582031 C 571.265625 513.109375 588.949219 470.417969 588.949219 425.90625 C 588.949219 381.394531 571.265625 338.703125 539.792969 307.226562 C 508.316406 275.753906 465.628906 258.070312 421.113281 258.070312 C 376.601562 258.070312 333.914062 275.753906 302.4375 307.226562 C 270.960938 338.703125 253.28125 381.394531 253.28125 425.90625 Z M 253.28125 425.90625 " clip-rule="nonzero"/></clipPath><clipPath id="dced392833"><path d="M 421.113281 258.96875 C 465.390625 258.96875 507.847656 276.558594 539.15625 307.863281 C 570.460938 339.171875 588.050781 381.632812 588.050781 425.90625 C 588.050781 470.179688 570.460938 512.640625 539.15625 543.945312 C 507.847656 575.253906 465.390625 592.839844 421.113281 592.839844 C 376.839844 592.839844 334.378906 575.253906 303.074219 543.945312 C 271.765625 512.640625 254.179688 470.179688 254.179688 425.90625 C 254.179688 381.632812 271.765625 339.171875 303.074219 307.863281 C 334.378906 276.558594 376.839844 258.96875 421.113281 258.96875 Z M 421.113281 258.96875 " clip-rule="nonzero"/></clipPath><clipPath id="cee48e8cfb"><path d="M 253.28125 258.070312 L 589 258.070312 L 589 594 L 253.28125 594 Z M 253.28125 258.070312 " clip-rule="nonzero"/></clipPath><clipPath id="8eae8cf05a"><path d="M 253.28125 425.90625 C 253.28125 470.417969 270.960938 513.109375 302.4375 544.582031 C 333.914062 576.058594 376.601562 593.742188 421.113281 593.742188 C 465.628906 593.742188 508.316406 576.058594 539.792969 544.582031 C 571.265625 513.109375 588.949219 470.417969 588.949219 425.90625 C 588.949219 381.394531 571.265625 338.703125 539.792969 307.226562 C 508.316406 275.753906 465.628906 258.070312 421.113281 258.070312 C 376.601562 258.070312 333.914062 275.753906 302.4375 307.226562 C 270.960938 338.703125 253.28125 381.394531 253.28125 425.90625 Z M 253.28125 425.90625 " clip-rule="nonzero"/></clipPath><clipPath id="ea38920bcb"><path d="M 253.28125 425.902344 C 253.28125 470.410156 270.960938 513.101562 302.4375 544.574219 C 333.910156 576.046875 376.597656 593.730469 421.109375 593.730469 C 465.621094 593.730469 508.308594 576.046875 539.785156 544.574219 C 571.257812 513.101562 588.941406 470.410156 588.941406 425.902344 C 588.941406 381.390625 571.257812 338.703125 539.785156 307.226562 C 508.308594 275.753906 465.621094 258.070312 421.109375 258.070312 C 376.597656 258.070312 333.910156 275.753906 302.4375 307.226562 C 270.960938 338.703125 253.28125 381.390625 253.28125 425.902344 Z M 253.28125 425.902344 " clip-rule="nonzero"/></clipPath><clipPath id="1823546cb3"><path d="M 254.03125 959.640625 L 588.53125 959.640625 L 588.53125 1294 L 254.03125 1294 Z M 254.03125 959.640625 " clip-rule="nonzero"/></clipPath><clipPath id="664e769965"><path d="M 253.28125 1126.726562 C 253.28125 1171.238281 270.960938 1213.929688 302.4375 1245.40625 C 333.914062 1276.878906 376.601562 1294.5625 421.113281 1294.5625 C 465.628906 1294.5625 508.316406 1276.878906 539.792969 1245.40625 C 571.265625 1213.929688 588.949219 1171.238281 588.949219 1126.726562 C 588.949219 1082.214844 571.265625 1039.523438 539.792969 1008.050781 C 508.316406 976.574219 465.628906 958.890625 421.113281 958.890625 C 376.601562 958.890625 333.914062 976.574219 302.4375 1008.050781 C 270.960938 1039.523438 253.28125 1082.214844 253.28125 1126.726562 Z M 253.28125 1126.726562 " clip-rule="nonzero"/></clipPath><clipPath id="3f87eb25de"><path d="M 421.113281 959.792969 C 465.390625 959.792969 507.847656 977.378906 539.15625 1008.6875 C 570.460938 1039.992188 588.050781 1082.453125 588.050781 1126.726562 C 588.050781 1171 570.460938 1213.460938 539.15625 1244.769531 C 507.847656 1276.074219 465.390625 1293.664062 421.113281 1293.664062 C 376.839844 1293.664062 334.378906 1276.074219 303.074219 1244.769531 C 271.765625 1213.460938 254.179688 1171 254.179688 1126.726562 C 254.179688 1082.453125 271.765625 1039.992188 303.074219 1008.6875 C 334.378906 977.378906 376.839844 959.792969 421.113281 959.792969 Z M 421.113281 959.792969 " clip-rule="nonzero"/></clipPath><clipPath id="eb80285aa6"><path d="M 253.28125 958.890625 L 589 958.890625 L 589 1294.882812 L 253.28125 1294.882812 Z M 253.28125 958.890625 " clip-rule="nonzero"/></clipPath><clipPath id="dbfa89f557"><path d="M 253.28125 1126.726562 C 253.28125 1171.238281 270.960938 1213.929688 302.4375 1245.40625 C 333.914062 1276.878906 376.601562 1294.5625 421.113281 1294.5625 C 465.628906 1294.5625 508.316406 1276.878906 539.792969 1245.40625 C 571.265625 1213.929688 588.949219 1171.238281 588.949219 1126.726562 C 588.949219 1082.214844 571.265625 1039.523438 539.792969 1008.050781 C 508.316406 976.574219 465.628906 958.890625 421.113281 958.890625 C 376.601562 958.890625 333.914062 976.574219 302.4375 1008.050781 C 270.960938 1039.523438 253.28125 1082.214844 253.28125 1126.726562 Z M 253.28125 1126.726562 " clip-rule="nonzero"/></clipPath><clipPath id="aebd5e1c04"><path d="M 253.28125 1126.722656 C 253.28125 1171.234375 270.960938 1213.921875 302.4375 1245.394531 C 333.910156 1276.871094 376.597656 1294.550781 421.109375 1294.550781 C 465.621094 1294.550781 508.308594 1276.871094 539.785156 1245.394531 C 571.257812 1213.921875 588.941406 1171.234375 588.941406 1126.722656 C 588.941406 1082.210938 571.257812 1039.523438 539.785156 1008.046875 C 508.308594 976.574219 465.621094 958.890625 421.109375 958.890625 C 376.597656 958.890625 333.910156 976.574219 302.4375 1008.046875 C 270.960938 1039.523438 253.28125 1082.210938 253.28125 1126.722656 Z M 253.28125 1126.722656 " clip-rule="nonzero"/></clipPath><clipPath id="74e8178e4b"><path d="M 911.800781 959.640625 L 1246 959.640625 L 1246 1294 L 911.800781 1294 Z M 911.800781 959.640625 " clip-rule="nonzero"/></clipPath><clipPath id="da0ef6877c"><path d="M 911.050781 1126.726562 C 911.050781 1171.238281 928.734375 1213.929688 960.207031 1245.40625 C 991.683594 1276.878906 1034.371094 1294.5625 1078.886719 1294.5625 C 1123.398438 1294.5625 1166.085938 1276.878906 1197.5625 1245.40625 C 1229.039062 1213.929688 1246.71875 1171.238281 1246.71875 1126.726562 C 1246.71875 1082.214844 1229.039062 1039.523438 1197.5625 1008.050781 C 1166.085938 976.574219 1123.398438 958.890625 1078.886719 958.890625 C 1034.371094 958.890625 991.683594 976.574219 960.207031 1008.050781 C 928.734375 1039.523438 911.050781 1082.214844 911.050781 1126.726562 Z M 911.050781 1126.726562 " clip-rule="nonzero"/></clipPath><clipPath id="7540ebf1f3"><path d="M 1078.886719 959.792969 C 1123.160156 959.792969 1165.621094 977.378906 1196.925781 1008.6875 C 1228.230469 1039.992188 1245.820312 1082.453125 1245.820312 1126.726562 C 1245.820312 1171 1228.230469 1213.460938 1196.925781 1244.769531 C 1165.621094 1276.074219 1123.160156 1293.664062 1078.886719 1293.664062 C 1034.609375 1293.664062 992.152344 1276.074219 960.84375 1244.769531 C 929.539062 1213.460938 911.949219 1171 911.949219 1126.726562 C 911.949219 1082.453125 929.539062 1039.992188 960.84375 1008.6875 C 992.152344 977.378906 1034.609375 959.792969 1078.886719 959.792969 Z M 1078.886719 959.792969 " clip-rule="nonzero"/></clipPath><clipPath id="7adb13a0f4"><path d="M 911.050781 958.890625 L 1247 958.890625 L 1247 1294.882812 L 911.050781 1294.882812 Z M 911.050781 958.890625 " clip-rule="nonzero"/></clipPath><clipPath id="959f954fc9"><path d="M 911.050781 1126.726562 C 911.050781 1171.238281 928.734375 1213.929688 960.207031 1245.40625 C 991.683594 1276.878906 1034.371094 1294.5625 1078.886719 1294.5625 C 1123.398438 1294.5625 1166.085938 1276.878906 1197.5625 1245.40625 C 1229.039062 1213.929688 1246.71875 1171.238281 1246.71875 1126.726562 C 1246.71875 1082.214844 1229.039062 1039.523438 1197.5625 1008.050781 C 1166.085938 976.574219 1123.398438 958.890625 1078.886719 958.890625 C 1034.371094 958.890625 991.683594 976.574219 960.207031 1008.050781 C 928.734375 1039.523438 911.050781 1082.214844 911.050781 1126.726562 Z M 911.050781 1126.726562 " clip-rule="nonzero"/></clipPath><clipPath id="b312d3c270"><path d="M 911.050781 1126.722656 C 911.050781 1171.234375 928.730469 1213.921875 960.207031 1245.394531 C 991.679688 1276.871094 1034.367188 1294.550781 1078.878906 1294.550781 C 1123.390625 1294.550781 1166.078125 1276.871094 1197.554688 1245.394531 C 1229.027344 1213.921875 1246.710938 1171.234375 1246.710938 1126.722656 C 1246.710938 1082.210938 1229.027344 1039.523438 1197.554688 1008.046875 C 1166.078125 976.574219 1123.390625 958.890625 1078.878906 958.890625 C 1034.367188 958.890625 991.679688 976.574219 960.207031 1008.046875 C 928.730469 1039.523438 911.050781 1082.210938 911.050781 1126.722656 Z M 911.050781 1126.722656 " clip-rule="nonzero"/></clipPath><clipPath id="65befc872e"><path d="M 662.277344 219 L 882 219 L 882 642 L 662.277344 642 Z M 662.277344 219 " clip-rule="nonzero"/></clipPath><clipPath id="454704760a"><path d="M 669.554688 413.636719 L 864.859375 222.234375 C 867.757812 219.394531 872.078125 218.566406 875.820312 220.140625 C 879.5625 221.710938 882 225.375 882 229.4375 L 882 631.4375 C 882 635.496094 879.5625 639.160156 875.820312 640.730469 C 872.078125 642.304688 867.757812 641.480469 864.859375 638.636719 L 669.554688 447.234375 C 665.039062 442.808594 662.496094 436.757812 662.496094 430.4375 C 662.496094 424.117188 665.039062 418.0625 669.554688 413.636719 Z M 669.554688 413.636719 " clip-rule="nonzero"/></clipPath><clipPath id="7f2de3b61a"><path d="M 0.398438 0 L 220 0 L 220 423 L 0.398438 423 Z M 0.398438 0 " clip-rule="nonzero"/></clipPath><clipPath id="d1133431f8"><path d="M 7.554688 194.636719 L 202.859375 3.234375 C 205.757812 0.394531 210.078125 -0.433594 213.820312 1.140625 C 217.5625 2.710938 220 6.375 220 10.4375 L 220 412.4375 C 220 416.496094 217.5625 420.160156 213.820312 421.730469 C 210.078125 423.304688 205.757812 422.480469 202.859375 419.636719 L 7.554688 228.234375 C 3.039062 223.808594 0.496094 217.757812 0.496094 211.4375 C 0.496094 205.117188 3.039062 199.0625 7.554688 194.636719 Z M 7.554688 194.636719 " clip-rule="nonzero"/></clipPath><clipPath id="1d5fda6049"><rect x="0" width="220" y="0" height="423"/></clipPath></defs><g clip-path="url(#0dce7be2db)"><g clip-path="url(#a1ed361601)"><g clip-path="url(#dced392833)"><path fill="#252825" d="M 361.175781 582.914062 C 340.242188 574.910156 321.15625 562.902344 304.84375 547.203125 C 288.527344 531.503906 275.753906 513.035156 266.824219 492.410156 C 258.207031 472.398438 253.742188 451.3125 253.28125 429.457031 C 252.820312 407.601562 256.511719 386.359375 264.363281 366.042969 C 272.367188 345.109375 284.371094 326.027344 300.070312 309.710938 C 315.769531 293.394531 334.242188 280.621094 354.867188 271.691406 C 374.875 263.074219 395.960938 258.609375 417.816406 258.148438 C 439.671875 257.6875 460.914062 261.378906 481.230469 269.230469 C 502.164062 277.234375 521.25 289.238281 537.566406 304.9375 C 553.878906 320.636719 566.65625 339.109375 575.582031 359.734375 C 584.203125 379.742188 588.664062 400.828125 589.125 422.683594 C 589.589844 444.542969 585.894531 465.78125 578.042969 486.097656 C 570.039062 507.03125 558.035156 526.117188 542.335938 542.433594 C 526.636719 558.746094 508.167969 571.523438 487.542969 580.449219 C 467.53125 589.070312 446.445312 593.53125 424.589844 593.996094 C 423.359375 593.996094 422.28125 593.996094 421.050781 593.996094 C 400.425781 593.996094 380.261719 590.300781 361.175781 582.914062 Z M 418.125 276.773438 C 378.261719 277.542969 341.011719 293.855469 313.460938 322.640625 C 285.910156 351.421875 271.136719 389.285156 271.90625 429.148438 C 272.675781 469.015625 288.988281 506.261719 317.773438 533.8125 C 345.785156 560.75 382.417969 575.371094 421.203125 575.371094 C 422.28125 575.371094 423.203125 575.371094 424.28125 575.371094 C 464.144531 574.601562 501.394531 558.285156 528.945312 529.503906 C 556.496094 500.722656 571.273438 462.859375 570.503906 422.992188 C 569.734375 383.128906 553.417969 345.878906 524.636719 318.328125 C 496.621094 291.394531 459.992188 276.773438 421.203125 276.773438 C 382.417969 276.773438 419.203125 276.773438 418.125 276.773438 Z M 418.125 276.773438 " fill-opacity="1" fill-rule="nonzero"/></g></g></g><g clip-path="url(#cee48e8cfb)"><g clip-path="url(#8eae8cf05a)"><g clip-path="url(#ea38920bcb)"><path stroke-linecap="butt" transform="matrix(0.75, 0, 0, 0.75, 253.279788, 258.070652)" fill="none" stroke-linejoin="miter" d="M 0.00194995 223.775608 C 0.00194995 283.119363 23.574869 340.041243 65.543622 382.004788 C 107.507168 423.968334 164.423839 447.546461 223.772803 447.546461 C 283.121766 447.546461 340.038438 423.968334 382.007191 382.004788 C 423.970736 340.041243 447.548864 283.119363 447.548864 223.775608 C 447.548864 164.426645 423.970736 107.509973 382.007191 65.541219 C 340.038438 23.577674 283.121766 -0.000452895 223.772803 -0.000452895 C 164.423839 -0.000452895 107.507168 23.577674 65.543622 65.541219 C 23.574869 107.509973 0.00194995 164.426645 0.00194995 223.775608 Z M 0.00194995 223.775608 " stroke="#1a1a1a" stroke-width="300" stroke-opacity="1" stroke-miterlimit="4"/></g></g></g><g clip-path="url(#1823546cb3)"><g clip-path="url(#664e769965)"><g clip-path="url(#3f87eb25de)"><path fill="#252825" d="M 361.175781 1283.734375 C 340.242188 1275.730469 321.15625 1263.726562 304.84375 1248.027344 C 288.527344 1232.324219 275.753906 1213.855469 266.824219 1193.230469 C 258.207031 1173.222656 253.742188 1152.136719 253.28125 1130.277344 C 252.820312 1108.421875 256.511719 1087.183594 264.363281 1066.867188 C 272.367188 1045.933594 284.371094 1026.847656 300.070312 1010.53125 C 315.769531 994.21875 334.242188 981.441406 354.867188 972.515625 C 374.875 963.894531 395.960938 959.433594 417.816406 958.96875 C 439.671875 958.507812 460.914062 962.203125 481.230469 970.050781 C 502.164062 978.054688 521.25 990.0625 537.566406 1005.761719 C 553.878906 1021.460938 566.65625 1039.929688 575.582031 1060.554688 C 584.203125 1080.5625 588.664062 1101.652344 589.125 1123.507812 C 589.589844 1145.363281 585.894531 1166.605469 578.042969 1186.921875 C 570.039062 1207.851562 558.035156 1226.9375 542.335938 1243.253906 C 526.636719 1259.570312 508.167969 1272.34375 487.542969 1281.269531 C 467.53125 1289.890625 446.445312 1294.355469 424.589844 1294.816406 C 423.359375 1294.816406 422.28125 1294.816406 421.050781 1294.816406 C 400.425781 1294.816406 380.261719 1291.121094 361.175781 1283.734375 Z M 418.125 977.59375 C 378.261719 978.363281 341.011719 994.679688 313.460938 1023.460938 C 285.910156 1052.242188 271.136719 1090.105469 271.90625 1129.972656 C 272.675781 1169.835938 288.988281 1207.082031 317.773438 1234.632812 C 345.785156 1261.570312 382.417969 1276.191406 421.203125 1276.191406 C 422.28125 1276.191406 423.203125 1276.191406 424.28125 1276.191406 C 464.144531 1275.421875 501.394531 1259.105469 528.945312 1230.324219 C 556.496094 1201.542969 571.273438 1163.679688 570.503906 1123.816406 C 569.734375 1083.949219 553.417969 1046.703125 524.636719 1019.152344 C 496.621094 992.214844 459.992188 977.59375 421.203125 977.59375 C 382.417969 977.59375 419.203125 977.59375 418.125 977.59375 Z M 418.125 977.59375 " fill-opacity="1" fill-rule="nonzero"/></g></g></g><g clip-path="url(#eb80285aa6)"><g clip-path="url(#dbfa89f557)"><g clip-path="url(#aebd5e1c04)"><path stroke-linecap="butt" transform="matrix(0.75, 0, 0, 0.75, 253.279788, 958.892297)" fill="none" stroke-linejoin="miter" d="M 0.00194995 223.773831 C 0.00194995 283.122795 23.574869 340.039466 65.543622 382.003011 C 107.507168 423.971765 164.423839 447.544684 223.772803 447.544684 C 283.121766 447.544684 340.038438 423.971765 382.007191 382.003011 C 423.970736 340.039466 447.548864 283.122795 447.548864 223.773831 C 447.548864 164.424868 423.970736 107.508196 382.007191 65.539442 C 340.038438 23.575897 283.121766 -0.00222988 223.772803 -0.00222988 C 164.423839 -0.00222988 107.507168 23.575897 65.543622 65.539442 C 23.574869 107.508196 0.00194995 164.424868 0.00194995 223.773831 Z M 0.00194995 223.773831 " stroke="#1a1a1a" stroke-width="300" stroke-opacity="1" stroke-miterlimit="4"/></g></g></g><g clip-path="url(#74e8178e4b)"><g clip-path="url(#da0ef6877c)"><g clip-path="url(#7540ebf1f3)"><path fill="#252825" d="M 1018.945312 1283.734375 C 998.015625 1275.730469 978.929688 1263.726562 962.613281 1248.027344 C 946.296875 1232.324219 933.523438 1213.855469 924.59375 1193.230469 C 915.976562 1173.222656 911.511719 1152.136719 911.050781 1130.277344 C 910.589844 1108.421875 914.28125 1087.183594 922.132812 1066.867188 C 930.136719 1045.933594 942.140625 1026.847656 957.839844 1010.53125 C 973.539062 994.21875 992.011719 981.441406 1012.636719 972.515625 C 1032.644531 963.894531 1053.730469 959.433594 1075.585938 958.96875 C 1097.445312 958.507812 1118.683594 962.203125 1139 970.050781 C 1159.933594 978.054688 1179.019531 990.0625 1195.335938 1005.761719 C 1211.648438 1021.460938 1224.425781 1039.929688 1233.351562 1060.554688 C 1241.972656 1080.5625 1246.433594 1101.652344 1246.898438 1123.507812 C 1247.359375 1145.363281 1243.664062 1166.605469 1235.816406 1186.921875 C 1227.8125 1207.851562 1215.804688 1226.9375 1200.105469 1243.253906 C 1184.40625 1259.570312 1165.9375 1272.34375 1145.3125 1281.269531 C 1125.304688 1289.890625 1104.214844 1294.355469 1082.359375 1294.816406 C 1081.128906 1294.816406 1080.050781 1294.816406 1078.820312 1294.816406 C 1058.195312 1294.816406 1038.03125 1291.121094 1018.945312 1283.734375 Z M 1075.894531 977.59375 C 1036.03125 978.363281 998.785156 994.679688 971.230469 1023.460938 C 943.679688 1052.242188 928.90625 1090.105469 929.675781 1129.972656 C 930.445312 1169.835938 946.757812 1207.082031 975.542969 1234.632812 C 1003.554688 1261.570312 1040.1875 1276.191406 1078.972656 1276.191406 C 1080.050781 1276.191406 1080.976562 1276.191406 1082.050781 1276.191406 C 1121.917969 1275.421875 1159.164062 1259.105469 1186.714844 1230.324219 C 1214.265625 1201.542969 1229.042969 1163.679688 1228.273438 1123.816406 C 1227.503906 1083.949219 1211.1875 1046.703125 1182.40625 1019.152344 C 1154.394531 992.214844 1117.761719 977.59375 1078.972656 977.59375 C 1040.1875 977.59375 1076.972656 977.59375 1075.894531 977.59375 Z M 1075.894531 977.59375 " fill-opacity="1" fill-rule="nonzero"/></g></g></g><g clip-path="url(#7adb13a0f4)"><g clip-path="url(#959f954fc9)"><g clip-path="url(#b312d3c270)"><path stroke-linecap="butt" transform="matrix(0.75, 0, 0, 0.75, 911.050083, 958.892297)" fill="none" stroke-linejoin="miter" d="M 0.000931162 223.773831 C 0.000931162 283.122795 23.57385 340.039466 65.542603 382.003011 C 107.506149 423.971765 164.42282 447.544684 223.771784 447.544684 C 283.120747 447.544684 340.037419 423.971765 382.006172 382.003011 C 423.969718 340.039466 447.547845 283.122795 447.547845 223.773831 C 447.547845 164.424868 423.969718 107.508196 382.006172 65.539442 C 340.037419 23.575897 283.120747 -0.00222988 223.771784 -0.00222988 C 164.42282 -0.00222988 107.506149 23.575897 65.542603 65.539442 C 23.57385 107.508196 0.000931162 164.424868 0.000931162 223.773831 Z M 0.000931162 223.773831 " stroke="#1a1a1a" stroke-width="300" stroke-opacity="1" stroke-miterlimit="4"/></g></g></g><path stroke-linecap="butt" transform="matrix(0, 0.75, -0.75, 0, 477.363496, 542.217245)" fill="none" stroke-linejoin="miter" d="M 0.00200627 75.000293 L 647.002062 75.000293 " stroke="#1a1a1a" stroke-width="150" stroke-opacity="1" stroke-miterlimit="4"/><path stroke-linecap="butt" transform="matrix(0.75, 0, 0, 0.75, 784.201838, 369.6557)" fill="none" stroke-linejoin="miter" d="M 397.408 904.521644 L 397.408 250.000755 C 397.408 153.349705 319.059035 75.00074 222.407985 75.00074 L 0.00171626 75.00074 " stroke="#1a1a1a" stroke-width="150" stroke-opacity="1" stroke-miterlimit="4"/><g clip-path="url(#65befc872e)"><g clip-path="url(#454704760a)"><g transform="matrix(1, 0, 0, 1, 662, 219)"><g clip-path="url(#1d5fda6049)"><g clip-path="url(#7f2de3b61a)"><g clip-path="url(#d1133431f8)"><rect x="-992" width="2160" fill="#1a1a1a" height="2159.999904" y="-548.999985" fill-opacity="1"/></g></g></g></g></g></g><path stroke-linecap="round" transform="matrix(0.75, -0.000000000000000093, 0.000000000000000093, 0.75, 588.949855, 726.837397)" fill="none" stroke-linejoin="miter" d="M 74.999159 74.99806 L 637.11379 74.99806 " stroke="#1a1a1a" stroke-width="150" stroke-opacity="1" stroke-miterlimit="4"/></svg>