<svg xmlns="http://www.w3.org/2000/svg" xmlns:xlink="http://www.w3.org/1999/xlink" width="2000" zoomAndPan="magnify" viewBox="0 0 1500 1499.999933" height="2000" preserveAspectRatio="xMidYMid meet" version="1.0"><defs><clipPath id="4d0f2ec911"><path d="M 232.753906 150.015625 L 526 150.015625 L 526 443.265625 L 232.753906 443.265625 Z M 232.753906 150.015625 " clip-rule="nonzero"/></clipPath><clipPath id="605931d292"><path d="M 232.003906 296.707031 C 232.003906 335.8125 247.535156 373.316406 275.1875 400.964844 C 302.839844 428.617188 340.339844 444.152344 379.445312 444.152344 C 418.546875 444.152344 456.050781 428.617188 483.703125 400.964844 C 511.351562 373.316406 526.886719 335.8125 526.886719 296.707031 C 526.886719 257.605469 511.351562 220.101562 483.703125 192.453125 C 456.050781 164.800781 418.546875 149.265625 379.445312 149.265625 C 340.339844 149.265625 302.839844 164.800781 275.1875 192.453125 C 247.535156 220.101562 232.003906 257.605469 232.003906 296.707031 Z M 232.003906 296.707031 " clip-rule="nonzero"/></clipPath><clipPath id="7928b57e6e"><path d="M 379.445312 150.167969 C 418.308594 150.167969 455.582031 165.605469 483.066406 193.085938 C 510.546875 220.570312 525.988281 257.84375 525.988281 296.707031 C 525.988281 335.574219 510.546875 372.847656 483.066406 400.328125 C 455.582031 427.8125 418.308594 443.25 379.445312 443.25 C 340.578125 443.25 303.304688 427.8125 275.824219 400.328125 C 248.339844 372.847656 232.902344 335.574219 232.902344 296.707031 C 232.902344 257.84375 248.339844 220.570312 275.824219 193.085938 C 303.304688 165.605469 340.578125 150.167969 379.445312 150.167969 Z M 379.445312 150.167969 " clip-rule="nonzero"/></clipPath><clipPath id="e9c153ea54"><path d="M 232.003906 149.265625 L 526.753906 149.265625 L 526.753906 444.015625 L 232.003906 444.015625 Z M 232.003906 149.265625 " clip-rule="nonzero"/></clipPath><clipPath id="314c6996c5"><path d="M 232.003906 296.707031 C 232.003906 335.8125 247.535156 373.316406 275.1875 400.964844 C 302.839844 428.617188 340.339844 444.152344 379.445312 444.152344 C 418.546875 444.152344 456.050781 428.617188 483.703125 400.964844 C 511.351562 373.316406 526.886719 335.8125 526.886719 296.707031 C 526.886719 257.605469 511.351562 220.101562 483.703125 192.453125 C 456.050781 164.800781 418.546875 149.265625 379.445312 149.265625 C 340.339844 149.265625 302.839844 164.800781 275.1875 192.453125 C 247.535156 220.101562 232.003906 257.605469 232.003906 296.707031 Z M 232.003906 296.707031 " clip-rule="nonzero"/></clipPath><clipPath id="ad8d847e64"><path d="M 232.003906 296.707031 C 232.003906 335.808594 247.535156 373.3125 275.1875 400.960938 C 302.835938 428.613281 340.339844 444.144531 379.441406 444.144531 C 418.546875 444.144531 456.046875 428.613281 483.695312 400.960938 C 511.347656 373.3125 526.882812 335.808594 526.882812 296.707031 C 526.882812 257.601562 511.347656 220.101562 483.695312 192.449219 C 456.046875 164.800781 418.546875 149.265625 379.441406 149.265625 C 340.339844 149.265625 302.835938 164.800781 275.1875 192.449219 C 247.535156 220.101562 232.003906 257.601562 232.003906 296.707031 Z M 232.003906 296.707031 " clip-rule="nonzero"/></clipPath><clipPath id="d19f22eb3b"><path d="M 232.753906 1056 L 526 1056 L 526 1349.117188 L 232.753906 1349.117188 Z M 232.753906 1056 " clip-rule="nonzero"/></clipPath><clipPath id="04f835a5ba"><path d="M 232.003906 1202.558594 C 232.003906 1241.660156 247.535156 1279.164062 275.1875 1306.816406 C 302.839844 1334.464844 340.339844 1350 379.445312 1350 C 418.546875 1350 456.050781 1334.464844 483.703125 1306.816406 C 511.351562 1279.164062 526.886719 1241.660156 526.886719 1202.558594 C 526.886719 1163.453125 511.351562 1125.949219 483.703125 1098.300781 C 456.050781 1070.648438 418.546875 1055.117188 379.445312 1055.117188 C 340.339844 1055.117188 302.839844 1070.648438 275.1875 1098.300781 C 247.535156 1125.949219 232.003906 1163.453125 232.003906 1202.558594 Z M 232.003906 1202.558594 " clip-rule="nonzero"/></clipPath><clipPath id="e64dc42b88"><path d="M 379.445312 1056.015625 C 418.308594 1056.015625 455.582031 1071.453125 483.066406 1098.9375 C 510.546875 1126.417969 525.988281 1163.691406 525.988281 1202.558594 C 525.988281 1241.421875 510.546875 1278.695312 483.066406 1306.179688 C 455.582031 1333.660156 418.308594 1349.101562 379.445312 1349.101562 C 340.578125 1349.101562 303.304688 1333.660156 275.824219 1306.179688 C 248.339844 1278.695312 232.902344 1241.421875 232.902344 1202.558594 C 232.902344 1163.691406 248.339844 1126.417969 275.824219 1098.9375 C 303.304688 1071.453125 340.578125 1056.015625 379.445312 1056.015625 Z M 379.445312 1056.015625 " clip-rule="nonzero"/></clipPath><clipPath id="579e150ffa"><path d="M 232.003906 1055.117188 L 526.753906 1055.117188 L 526.753906 1349.867188 L 232.003906 1349.867188 Z M 232.003906 1055.117188 " clip-rule="nonzero"/></clipPath><clipPath id="a201cc0137"><path d="M 232.003906 1202.558594 C 232.003906 1241.660156 247.535156 1279.164062 275.1875 1306.816406 C 302.839844 1334.464844 340.339844 1350 379.445312 1350 C 418.546875 1350 456.050781 1334.464844 483.703125 1306.816406 C 511.351562 1279.164062 526.886719 1241.660156 526.886719 1202.558594 C 526.886719 1163.453125 511.351562 1125.949219 483.703125 1098.300781 C 456.050781 1070.648438 418.546875 1055.117188 379.445312 1055.117188 C 340.339844 1055.117188 302.839844 1070.648438 275.1875 1098.300781 C 247.535156 1125.949219 232.003906 1163.453125 232.003906 1202.558594 Z M 232.003906 1202.558594 " clip-rule="nonzero"/></clipPath><clipPath id="d82aa0ae8d"><path d="M 232.003906 1202.554688 C 232.003906 1241.65625 247.535156 1279.160156 275.1875 1306.808594 C 302.835938 1334.460938 340.339844 1349.996094 379.441406 1349.996094 C 418.546875 1349.996094 456.046875 1334.460938 483.695312 1306.808594 C 511.347656 1279.160156 526.882812 1241.65625 526.882812 1202.554688 C 526.882812 1163.453125 511.347656 1125.949219 483.695312 1098.300781 C 456.046875 1070.648438 418.546875 1055.117188 379.441406 1055.117188 C 340.339844 1055.117188 302.835938 1070.648438 275.1875 1098.300781 C 247.535156 1125.949219 232.003906 1163.453125 232.003906 1202.554688 Z M 232.003906 1202.554688 " clip-rule="nonzero"/></clipPath><clipPath id="432a5d6112"><path d="M 974 1056 L 1267.113281 1056 L 1267.113281 1349.117188 L 974 1349.117188 Z M 974 1056 " clip-rule="nonzero"/></clipPath><clipPath id="594b4e7c9d"><path d="M 973.113281 1202.558594 C 973.113281 1241.660156 988.648438 1279.164062 1016.296875 1306.816406 C 1043.949219 1334.464844 1081.453125 1350 1120.554688 1350 C 1159.660156 1350 1197.160156 1334.464844 1224.8125 1306.816406 C 1252.464844 1279.164062 1267.996094 1241.660156 1267.996094 1202.558594 C 1267.996094 1163.453125 1252.464844 1125.949219 1224.8125 1098.300781 C 1197.160156 1070.648438 1159.660156 1055.117188 1120.554688 1055.117188 C 1081.453125 1055.117188 1043.949219 1070.648438 1016.296875 1098.300781 C 988.648438 1125.949219 973.113281 1163.453125 973.113281 1202.558594 Z M 973.113281 1202.558594 " clip-rule="nonzero"/></clipPath><clipPath id="f7043b8167"><path d="M 1120.554688 1056.015625 C 1159.421875 1056.015625 1196.695312 1071.453125 1224.175781 1098.9375 C 1251.660156 1126.417969 1267.097656 1163.691406 1267.097656 1202.558594 C 1267.097656 1241.421875 1251.660156 1278.695312 1224.175781 1306.179688 C 1196.695312 1333.660156 1159.421875 1349.101562 1120.554688 1349.101562 C 1081.691406 1349.101562 1044.417969 1333.660156 1016.933594 1306.179688 C 989.453125 1278.695312 974.011719 1241.421875 974.011719 1202.558594 C 974.011719 1163.691406 989.453125 1126.417969 1016.933594 1098.9375 C 1044.417969 1071.453125 1081.691406 1056.015625 1120.554688 1056.015625 Z M 1120.554688 1056.015625 " clip-rule="nonzero"/></clipPath><clipPath id="751f30e22d"><path d="M 973.113281 1055.117188 L 1267.863281 1055.117188 L 1267.863281 1349.867188 L 973.113281 1349.867188 Z M 973.113281 1055.117188 " clip-rule="nonzero"/></clipPath><clipPath id="19b3e90976"><path d="M 973.113281 1202.558594 C 973.113281 1241.660156 988.648438 1279.164062 1016.296875 1306.816406 C 1043.949219 1334.464844 1081.453125 1350 1120.554688 1350 C 1159.660156 1350 1197.160156 1334.464844 1224.8125 1306.816406 C 1252.464844 1279.164062 1267.996094 1241.660156 1267.996094 1202.558594 C 1267.996094 1163.453125 1252.464844 1125.949219 1224.8125 1098.300781 C 1197.160156 1070.648438 1159.660156 1055.117188 1120.554688 1055.117188 C 1081.453125 1055.117188 1043.949219 1070.648438 1016.296875 1098.300781 C 988.648438 1125.949219 973.113281 1163.453125 973.113281 1202.558594 Z M 973.113281 1202.558594 " clip-rule="nonzero"/></clipPath><clipPath id="b62f079916"><path d="M 973.113281 1202.554688 C 973.113281 1241.65625 988.648438 1279.160156 1016.296875 1306.808594 C 1043.949219 1334.460938 1081.449219 1349.996094 1120.550781 1349.996094 C 1159.65625 1349.996094 1197.15625 1334.460938 1224.808594 1306.808594 C 1252.457031 1279.160156 1267.992188 1241.65625 1267.992188 1202.554688 C 1267.992188 1163.453125 1252.457031 1125.949219 1224.808594 1098.300781 C 1197.15625 1070.648438 1159.65625 1055.117188 1120.550781 1055.117188 C 1081.449219 1055.117188 1043.949219 1070.648438 1016.296875 1098.300781 C 988.648438 1125.949219 973.113281 1163.453125 973.113281 1202.554688 Z M 973.113281 1202.554688 " clip-rule="nonzero"/></clipPath></defs><g clip-path="url(#4d0f2ec911)"><g clip-path="url(#605931d292)"><g clip-path="url(#7928b57e6e)"><path fill="#252825" d="M 326.652344 434.226562 C 308.289062 427.207031 291.546875 416.675781 277.234375 402.902344 C 262.921875 389.128906 251.714844 372.925781 243.882812 354.835938 C 236.324219 337.28125 232.40625 318.785156 232.003906 299.613281 C 231.597656 280.4375 234.835938 261.804688 241.722656 243.984375 C 248.746094 225.621094 259.277344 208.878906 273.046875 194.566406 C 286.820312 180.253906 303.023438 169.046875 321.117188 161.214844 C 338.667969 153.652344 357.167969 149.738281 376.339844 149.332031 C 395.511719 148.929688 414.144531 152.167969 431.96875 159.054688 C 450.332031 166.074219 467.074219 176.609375 481.386719 190.378906 C 495.695312 204.152344 506.902344 220.355469 514.734375 238.445312 C 522.296875 256 526.210938 274.496094 526.617188 293.671875 C 527.023438 312.84375 523.78125 331.476562 516.894531 349.300781 C 509.875 367.660156 499.34375 384.40625 485.570312 398.714844 C 471.796875 413.027344 455.597656 424.234375 437.503906 432.066406 C 419.949219 439.628906 401.453125 443.542969 382.28125 443.949219 C 381.199219 443.949219 380.253906 443.949219 379.175781 443.949219 C 361.082031 443.949219 343.394531 440.707031 326.652344 434.226562 Z M 376.609375 165.671875 C 341.640625 166.347656 308.964844 180.660156 284.796875 205.90625 C 260.625 231.15625 247.664062 264.371094 248.339844 299.339844 C 249.015625 334.3125 263.328125 366.988281 288.574219 391.15625 C 313.148438 414.785156 345.285156 427.609375 379.308594 427.609375 C 380.253906 427.609375 381.066406 427.609375 382.011719 427.609375 C 416.980469 426.9375 449.65625 412.625 473.824219 387.375 C 497.992188 362.125 510.953125 328.910156 510.28125 293.941406 C 509.605469 258.96875 495.292969 226.296875 470.042969 202.125 C 445.46875 178.496094 413.335938 165.671875 379.308594 165.671875 C 345.285156 165.671875 377.554688 165.671875 376.609375 165.671875 Z M 376.609375 165.671875 " fill-opacity="1" fill-rule="nonzero"/></g></g></g><g clip-path="url(#e9c153ea54)"><g clip-path="url(#314c6996c5)"><g clip-path="url(#ad8d847e64)"><path stroke-linecap="butt" transform="matrix(0.75, 0, 0, 0.75, 232.002289, 149.266345)" fill="none" stroke-linejoin="miter" d="M 0.00215584 196.587599 C 0.00215584 248.72302 20.710491 298.728233 57.580286 335.592819 C 94.444872 372.462614 144.450085 393.170949 196.585506 393.170949 C 248.726136 393.170949 298.72614 372.462614 335.590726 335.592819 C 372.460521 298.728233 393.174065 248.72302 393.174065 196.587599 C 393.174065 144.446969 372.460521 94.446965 335.590726 57.57717 C 298.72614 20.712584 248.726136 -0.000959658 196.585506 -0.000959658 C 144.450085 -0.000959658 94.444872 20.712584 57.580286 57.57717 C 20.710491 94.446965 0.00215584 144.446969 0.00215584 196.587599 Z M 0.00215584 196.587599 " stroke="#ffffff" stroke-width="200" stroke-opacity="1" stroke-miterlimit="4"/></g></g></g><path stroke-linecap="butt" transform="matrix(0, 0.75, -0.75, 0, 431.192228, 403.000193)" fill="none" stroke-linejoin="miter" d="M -0.000257718 69.001102 L 894.708153 69.001102 " stroke="#ffffff" stroke-width="138" stroke-opacity="1" stroke-miterlimit="4"/><path stroke-linecap="butt" transform="matrix(0.75, 0, 0, 0.75, 657.215017, 244.95863)" fill="none" stroke-linejoin="miter" d="M 610.301905 1105.430255 L 610.301905 267.997891 C 610.301905 158.09684 521.208148 68.997874 411.301888 68.997874 L 68.999775 68.997874 " stroke="#ffffff" stroke-width="138" stroke-opacity="1" stroke-miterlimit="4"/><path stroke-linecap="round" transform="matrix(0.75, 0, 0, 0.75, 657.215017, 244.95863)" fill="none" stroke-linejoin="round" d="M 344.999799 275.997892 L 68.999775 68.997874 L 344.999799 -138.002144 " stroke="#ffffff" stroke-width="138" stroke-opacity="1" stroke-miterlimit="4"/><path stroke-linecap="round" transform="matrix(0.75, 0.00044475, -0.00044475, 0.75, 502.02215, 697.516336)" fill="none" stroke-linejoin="miter" d="M 69.000984 68.999818 L 755.751152 68.998825 " stroke="#ffffff" stroke-width="138" stroke-opacity="1" stroke-miterlimit="4"/><g clip-path="url(#d19f22eb3b)"><g clip-path="url(#04f835a5ba)"><g clip-path="url(#e64dc42b88)"><path fill="#252825" d="M 326.652344 1340.074219 C 308.289062 1333.054688 291.546875 1322.523438 277.234375 1308.75 C 262.921875 1294.980469 251.714844 1278.777344 243.882812 1260.683594 C 236.324219 1243.132812 232.40625 1224.632812 232.003906 1205.460938 C 231.597656 1186.289062 234.835938 1167.65625 241.722656 1149.832031 C 248.746094 1131.46875 259.277344 1114.726562 273.046875 1100.414062 C 286.820312 1086.101562 303.023438 1074.894531 321.117188 1067.0625 C 338.667969 1059.503906 357.167969 1055.585938 376.339844 1055.183594 C 395.511719 1054.777344 414.144531 1058.019531 431.96875 1064.902344 C 450.332031 1071.925781 467.074219 1082.457031 481.386719 1096.230469 C 495.695312 1110 506.902344 1126.203125 514.734375 1144.296875 C 522.296875 1161.847656 526.210938 1180.347656 526.617188 1199.519531 C 527.023438 1218.691406 523.78125 1237.324219 516.894531 1255.148438 C 509.875 1273.511719 499.34375 1290.253906 485.570312 1304.566406 C 471.796875 1318.878906 455.597656 1330.085938 437.503906 1337.914062 C 419.949219 1345.476562 401.453125 1349.390625 382.28125 1349.796875 C 381.199219 1349.796875 380.253906 1349.796875 379.175781 1349.796875 C 361.082031 1349.796875 343.394531 1346.558594 326.652344 1340.074219 Z M 376.609375 1071.519531 C 341.640625 1072.195312 308.964844 1086.507812 284.796875 1111.757812 C 260.625 1137.003906 247.664062 1170.21875 248.339844 1205.191406 C 249.015625 1240.160156 263.328125 1272.835938 288.574219 1297.003906 C 313.148438 1320.632812 345.285156 1333.460938 379.308594 1333.460938 C 380.253906 1333.460938 381.066406 1333.460938 382.011719 1333.460938 C 416.980469 1332.785156 449.65625 1318.472656 473.824219 1293.222656 C 497.992188 1267.976562 510.953125 1234.761719 510.28125 1199.789062 C 509.605469 1164.820312 495.292969 1132.144531 470.042969 1107.976562 C 445.46875 1084.347656 413.335938 1071.519531 379.308594 1071.519531 C 345.285156 1071.519531 377.554688 1071.519531 376.609375 1071.519531 Z M 376.609375 1071.519531 " fill-opacity="1" fill-rule="nonzero"/></g></g></g><g clip-path="url(#579e150ffa)"><g clip-path="url(#a201cc0137)"><g clip-path="url(#d82aa0ae8d)"><path stroke-linecap="butt" transform="matrix(0.75, 0, 0, 0.75, 232.002289, 1055.115369)" fill="none" stroke-linejoin="miter" d="M 0.00215584 196.585775 C 0.00215584 248.721196 20.710491 298.726409 57.580286 335.590995 C 94.444872 372.46079 144.450085 393.174333 196.585506 393.174333 C 248.726136 393.174333 298.72614 372.46079 335.590726 335.590995 C 372.460521 298.726409 393.174065 248.721196 393.174065 196.585775 C 393.174065 144.450354 372.460521 94.445141 335.590726 57.580554 C 298.72614 20.71076 248.726136 0.00242451 196.585506 0.00242451 C 144.450085 0.00242451 94.444872 20.71076 57.580286 57.580554 C 20.710491 94.445141 0.00215584 144.450354 0.00215584 196.585775 Z M 0.00215584 196.585775 " stroke="#ffffff" stroke-width="200" stroke-opacity="1" stroke-miterlimit="4"/></g></g></g><g clip-path="url(#432a5d6112)"><g clip-path="url(#594b4e7c9d)"><g clip-path="url(#f7043b8167)"><path fill="#252825" d="M 1067.761719 1340.074219 C 1049.398438 1333.054688 1032.65625 1322.523438 1018.34375 1308.75 C 1004.03125 1294.980469 992.824219 1278.777344 984.996094 1260.683594 C 977.433594 1243.132812 973.519531 1224.632812 973.113281 1205.460938 C 972.707031 1186.289062 975.949219 1167.65625 982.835938 1149.832031 C 989.855469 1131.46875 1000.386719 1114.726562 1014.160156 1100.414062 C 1027.929688 1086.101562 1044.132812 1074.894531 1062.226562 1067.0625 C 1079.777344 1059.503906 1098.277344 1055.585938 1117.449219 1055.183594 C 1136.621094 1054.777344 1155.253906 1058.019531 1173.078125 1064.902344 C 1191.441406 1071.925781 1208.183594 1082.457031 1222.496094 1096.230469 C 1236.808594 1110 1248.015625 1126.203125 1255.847656 1144.296875 C 1263.40625 1161.847656 1267.324219 1180.347656 1267.726562 1199.519531 C 1268.132812 1218.691406 1264.890625 1237.324219 1258.007812 1255.148438 C 1250.984375 1273.511719 1240.453125 1290.253906 1226.679688 1304.566406 C 1212.910156 1318.878906 1196.707031 1330.085938 1178.613281 1337.914062 C 1161.0625 1345.476562 1142.5625 1349.390625 1123.390625 1349.796875 C 1122.308594 1349.796875 1121.367188 1349.796875 1120.285156 1349.796875 C 1102.191406 1349.796875 1084.503906 1346.558594 1067.761719 1340.074219 Z M 1117.71875 1071.519531 C 1082.75 1072.195312 1050.074219 1086.507812 1025.90625 1111.757812 C 1001.738281 1137.003906 988.773438 1170.21875 989.449219 1205.191406 C 990.125 1240.160156 1004.4375 1272.835938 1029.6875 1297.003906 C 1054.261719 1320.632812 1086.394531 1333.460938 1120.421875 1333.460938 C 1121.367188 1333.460938 1122.175781 1333.460938 1123.121094 1333.460938 C 1158.089844 1332.785156 1190.765625 1318.472656 1214.933594 1293.222656 C 1239.101562 1267.976562 1252.066406 1234.761719 1251.390625 1199.789062 C 1250.714844 1164.820312 1236.402344 1132.144531 1211.152344 1107.976562 C 1186.582031 1084.347656 1154.445312 1071.519531 1120.421875 1071.519531 C 1086.394531 1071.519531 1118.664062 1071.519531 1117.71875 1071.519531 Z M 1117.71875 1071.519531 " fill-opacity="1" fill-rule="nonzero"/></g></g></g><g clip-path="url(#751f30e22d)"><g clip-path="url(#19b3e90976)"><g clip-path="url(#b62f079916)"><path stroke-linecap="butt" transform="matrix(0.75, 0, 0, 0.75, 973.113046, 1055.115369)" fill="none" stroke-linejoin="miter" d="M 0.00031429 196.585775 C 0.00031429 248.721196 20.713858 298.726409 57.578444 335.590995 C 94.448239 372.46079 144.448243 393.174333 196.583665 393.174333 C 248.724294 393.174333 298.724298 372.46079 335.594093 335.590995 C 372.45868 298.726409 393.172223 248.721196 393.172223 196.585775 C 393.172223 144.450354 372.45868 94.445141 335.594093 57.580554 C 298.724298 20.71076 248.724294 0.00242451 196.583665 0.00242451 C 144.448243 0.00242451 94.448239 20.71076 57.578444 57.580554 C 20.713858 94.445141 0.00031429 144.450354 0.00031429 196.585775 Z M 0.00031429 196.585775 " stroke="#ffffff" stroke-width="200" stroke-opacity="1" stroke-miterlimit="4"/></g></g></g></svg>